<?xml version="1.0" standalone="no"?>
<!DOCTYPE svg PUBLIC "-//W3C//DTD SVG 20010904//EN" "http://www.w3.org/TR/2001/REC-SVG-20010904/DTD/svg10.dtd">
<svg version="1.0" xmlns="http://www.w3.org/2000/svg"
    width="720.000000pt" height="720.000000pt" viewBox="0 0 720.000000 720.000000"
    preserveAspectRatio="xMidYMid meet">
    <metadata> Created by potrace 1.14, written by Peter Selinger 2001-2017 </metadata>
    <g transform="translate(0.000000,720.000000) scale(0.100000,-0.100000)"
        fill="#000000" stroke="none">
        <path
            d="M3510 7035 c-5 -6 -6 -15 -2 -20 4 -4 -5 -5 -19 -2 -21 6 -28 3 -32
-13 -3 -11 1 -27 9 -34 11 -12 11 -15 -1 -19 -7 -3 -15 -3 -17 1 -2 4 -16 14
-33 22 -29 15 -30 15 -45 -15 -22 -45 -81 -70 -155 -66 -115 7 -200 2 -255
-14 -30 -9 -61 -17 -67 -18 -7 0 -13 -4 -13 -9 0 -4 -7 -8 -15 -8 -8 0 -15 -4
-15 -8 0 -5 -10 -14 -22 -20 -46 -21 -121 -89 -167 -150 -13 -18 -28 -32 -33
-32 -5 0 -15 -6 -23 -12 -7 -7 -28 -24 -46 -38 -53 -40 -107 -98 -130 -140
-23 -41 -38 -44 -40 -7 0 16 -6 10 -21 -23 -14 -30 -21 -64 -20 -100 1 -50
-13 -100 -28 -100 -5 0 -22 51 -36 113 -3 15 -10 27 -14 27 -21 0 -46 -223
-30 -265 5 -13 2 -34 -7 -55 -22 -51 -50 -157 -57 -217 -4 -29 -13 -70 -21
-93 -16 -45 -11 -50 18 -17 l19 22 -7 -25 c-14 -52 -16 -59 -19 -77 -2 -10 -7
-46 -11 -78 -4 -33 -8 -71 -10 -85 -26 -172 -38 -611 -21 -755 11 -95 14 -148
8 -158 -2 -4 -15 -1 -29 8 -38 25 -70 27 -116 7 -36 -16 -47 -29 -73 -83 -61
-126 -76 -187 -70 -296 2 -54 7 -109 10 -123 4 -14 8 -36 11 -50 17 -86 23
-114 25 -117 2 -2 4 -7 5 -13 1 -5 4 -12 5 -15 1 -3 4 -9 5 -15 1 -5 4 -12 5
-15 1 -3 4 -9 5 -15 1 -5 4 -12 5 -15 1 -3 4 -9 5 -15 1 -5 4 -12 5 -15 1 -3
3 -8 4 -12 3 -17 52 -109 64 -121 6 -7 12 -18 12 -24 0 -16 162 -186 202 -211
29 -18 92 -25 123 -12 11 4 17 5 13 0 -4 -4 0 -24 8 -44 9 -20 17 -40 18 -46
12 -45 97 -228 110 -237 6 -4 7 -8 3 -8 -5 0 -1 -7 7 -16 9 -8 16 -22 16 -30
0 -8 5 -14 10 -14 6 0 10 -6 10 -13 0 -8 9 -24 20 -37 11 -13 20 -26 20 -30 0
-4 10 -18 23 -32 31 -35 48 -57 77 -98 27 -39 82 -93 219 -219 50 -46 91 -89
91 -94 0 -6 7 -19 17 -29 12 -14 14 -23 6 -41 -17 -37 -130 -157 -213 -227
-23 -19 -47 -39 -54 -45 -81 -69 -117 -94 -146 -107 -19 -8 -57 -25 -85 -36
-27 -12 -68 -29 -90 -38 -22 -10 -42 -18 -45 -19 -3 -1 -21 -9 -40 -17 -35
-15 -71 -30 -80 -33 -3 -1 -18 -7 -35 -14 -16 -6 -41 -15 -55 -20 -14 -5 -34
-13 -45 -17 -11 -4 -22 -8 -25 -9 -18 -6 -51 -19 -85 -33 -21 -10 -42 -17 -45
-18 -22 -3 -203 -90 -252 -121 -21 -13 -38 -20 -38 -17 0 4 -7 1 -15 -6 -8 -6
-18 -9 -22 -7 -5 3 -23 2 -42 -1 l-33 -7 -84 -290 c-91 -315 -91 -313 -99
-495 -12 -246 -14 -276 -20 -365 -3 -49 -7 -115 -10 -145 -6 -82 -15 -208 -20
-268 l-4 -52 2237 2 2236 3 -3 50 c-2 28 -5 68 -6 90 -7 102 -17 413 -20 635
-2 135 -6 255 -9 267 -3 13 -8 32 -11 43 -3 11 -7 29 -10 40 -3 11 -7 29 -10
40 -3 11 -7 28 -9 37 -3 10 -12 47 -21 83 -8 36 -18 74 -20 85 -30 138 -49
188 -83 221 -26 25 -44 34 -69 34 -18 0 -35 0 -38 0 -3 0 -60 29 -127 64 -68
36 -204 96 -303 134 -254 99 -331 133 -410 184 -39 24 -92 56 -118 72 -26 15
-100 79 -163 142 l-116 114 41 83 c31 62 58 99 109 148 154 149 222 231 311
372 80 128 148 270 176 366 22 76 24 77 80 83 21 3 117 94 176 168 104 129
188 391 204 631 5 75 3 104 -9 133 -8 20 -13 36 -11 36 2 0 -4 20 -15 45 -11
25 -17 45 -13 45 3 0 0 7 -7 15 -7 8 -9 15 -6 15 4 0 -2 10 -14 22 -11 12 -20
26 -20 30 0 13 -64 38 -95 38 -14 0 -37 -7 -51 -16 l-24 -17 4 99 c3 55 8 135
12 179 10 102 10 195 0 315 -4 52 -9 118 -10 145 -2 28 -7 84 -10 125 -4 41
-9 102 -11 135 -3 33 -8 78 -12 100 -4 22 -7 42 -8 45 0 3 -4 11 -8 18 -5 7
-3 12 3 12 6 0 11 10 10 23 -4 38 0 42 16 19 15 -21 42 -32 29 -12 -3 5 -8 20
-11 32 -2 13 -7 37 -10 53 -3 17 -6 48 -5 69 0 21 -3 44 -8 50 -5 6 -11 27
-15 46 -3 19 -7 42 -10 50 -13 46 -19 60 -25 60 -4 0 -5 44 -3 98 5 133 2 148
-25 97 l-21 -40 -12 45 c-20 78 -32 112 -38 105 -3 -3 -11 7 -17 22 l-12 28 0
-29 c-1 -47 -43 -62 -65 -23 -7 12 -13 24 -13 27 -1 3 -9 23 -18 44 -10 21
-19 52 -22 67 -8 43 -21 73 -39 88 -22 19 -27 11 -17 -27 5 -18 6 -32 1 -32
-4 0 -11 19 -15 42 l-7 42 -18 -22 c-10 -12 -20 -22 -23 -22 -3 0 -15 16 -27
35 -22 36 -49 40 -30 4 6 -10 8 -19 4 -19 -3 0 -1 -7 6 -15 7 -8 9 -15 5 -15
-4 0 0 -12 10 -26 16 -24 16 -25 -2 -15 -22 12 -73 56 -56 46 21 -10 -29 64
-72 109 -46 48 -162 141 -209 168 -17 10 -53 29 -81 44 l-50 26 38 -36 c20
-19 37 -37 37 -40 0 -2 -24 9 -52 25 -71 39 -89 38 -78 -1 10 -35 7 -37 -25
-12 -22 18 -23 20 -7 36 16 16 15 17 -9 11 -18 -4 -48 2 -90 19 -84 33 -159
49 -218 44 -44 -3 -47 -1 -43 17 5 18 4 19 -12 6 -15 -12 -23 -13 -54 -1 -62
22 -111 29 -122 15z" />
    </g>
</svg>